<?xml version="1.0" standalone="no"?><!DOCTYPE svg PUBLIC "-//W3C//DTD SVG 1.1//EN"
    "http://www.w3.org/Graphics/SVG/1.1/DTD/svg11.dtd">
<svg class="icon"
     viewBox="0 0 1024 1024" version="1.1"
     xmlns="http://www.w3.org/2000/svg"
     width="200" height="200">
    <defs>
        <style type="text/css"/>
    </defs>
    <path
        d="M829.4 517H618.1c36.4 0 51.4 38.6 35.2 79.5l-99.7 249.2c-6.9 17.4-29.4 29.2-50.6 29.2h211.3c21.2 0 43.7-10.7 50.6-28.1l99.7-251.6c16.2-40.8 1.2-78.2-35.2-78.2z"
        fill="#ffc120"/>
    <path
        d="M678.4 904.1H356.3c-14.6 0-29.9-4.3-43-12.2-14-8.4-24.6-20.3-29.9-33.6l-99.7-250.6c-12.3-30.9-10.9-61.2 3.9-83 11.9-17.5 30.9-27.2 53.5-27.2h552.4c22.6 0 41.6 9.7 53.5 27.2 14.8 21.8 16.2 52.1 3.9 83l-99.7 250.6c-5.3 13.2-15.9 25.1-29.9 33.6-13 7.8-28.3 12.2-42.9 12.2zM241.2 545.4c-8.6 0-12 3.5-13.8 6.2-4.2 6.1-6.4 19.8 0.9 38.3L328 840.5c2.9 7.2 15.9 15.5 28.3 15.5h322.1c12.5 0 25.5-8.3 28.3-15.5l99.7-250.6c7.3-18.5 5.1-32.2 0.9-38.3-1.8-2.6-5.2-6.2-13.8-6.2H241.2z"
        fill="#333333"/>
    <path
        d="M578.7 897.1H355.5c-28.5 0-57-17.8-66.4-41.4L189.4 605c-11.3-28.3-10.1-56.9 3.2-76.5 10.6-15.6 27.5-24.1 47.7-24.1h453.4c20.2 0 37.2 8.6 47.7 24.1 13.3 19.6 14.5 48.1 3.2 76.5l-99.7 250.6c-9.2 23.7-37.7 41.5-66.2 41.5zM240.4 538.4c-8.8 0-15.4 3.1-19.6 9.2-6.8 10.1-6.7 27.2 0.2 44.8L320.7 843c4.2 10.6 20.5 19.9 34.8 19.9h223.2c14.3 0 30.6-9.3 34.8-19.9l99.7-250.6c7-17.6 7.1-34.7 0.2-44.8-4.2-6.1-10.8-9.2-19.6-9.2H240.4z"
        fill="#333333"/>
    <path
        d="M476.1 880.1H355.5c-21.2 0-43.7-13.3-50.6-30.7l-99.7-250.6c-16.3-40.9-1.2-77.3 35.2-77.3h350.8c36.4 0 51.4 36.4 35.2 77.3l-99.7 250.6c-6.9 17.4-29.4 30.7-50.6 30.7z"
        fill="#FFFFFF"/>
    <path
        d="M476.1 897.1H355.5c-28.5 0-57-17.8-66.4-41.4L189.4 605c-11.3-28.3-10.1-56.9 3.2-76.5 10.6-15.6 27.5-24.1 47.7-24.1h350.8c20.2 0 37.2 8.6 47.7 24.1 13.3 19.6 14.5 48.1 3.2 76.5l-99.7 250.6c-9.2 23.7-37.7 41.5-66.2 41.5zM240.4 538.4c-8.8 0-15.4 3.1-19.6 9.2-6.8 10.1-6.7 27.2 0.2 44.8L320.7 843c4.2 10.6 20.5 19.9 34.8 19.9h120.6c14.3 0 30.6-9.3 34.8-19.9l99.7-250.6c7-17.6 7.1-34.7 0.2-44.8-4.2-6.1-10.8-9.2-19.6-9.2H240.4z"
        fill="#333333"/>
    <path
        d="M875.1 382.2c0.1-2.3 0.3-4.6 0.3-6.9 0-115.3-93.4-208.7-208.7-208.7-29.5 0-57.6 6.2-83.1 17.3-34.3-25-76.4-40-122.1-40-111.6 0-202.4 88.1-207.2 198.5-63.5 3.7-108 56.4-113.9 120.6-5.3 58.4 36.4 124.2 114.6 109.6 40.1-7.5 83.2-9 105.1-40 30 16.8 64.5 26.5 101.3 26.5 13.3 0 19.7 22.1 32.4 19.7 26.6 33.6 74.2 31.7 120.3 31.7 34.1 0 65.3-11.8 90.1-31.5 12.2 10 27.7 16 44.7 16 22.6 0 42.6-10.7 55.5-27.2C819.1 576.1 836 581 854 581c55.5 0 100.5-45 100.5-100.5 0.3-48.3-33.9-88.6-79.4-98.3z"
        fill="#ffc120"/>
    <path
        d="M569.7 634.6c-47.1 0-91.2-19.3-123.2-53.4-10 1.3-19.9 2-29.6 2-32.7 0-65.2-7-95-20.5-27.2 28.6-65.2 45.3-105.1 45.3-79.9 0-144.9-65-144.9-144.9 0-69.5 49.3-128.2 115.6-141.8 6.8-52 30.9-100 69.1-136.7C299.9 143 356.8 120 416.9 120c44.7 0 87.6 12.7 125.1 36.9 25.7-9.5 52.6-14.2 80.1-14.2 62.2 0 120.6 24.2 164.5 68.2 41.4 41.4 65.3 95.6 67.9 153.7 19.9 7.7 37.7 20.5 51.4 37.2 18.2 22.2 28.2 50.2 28.2 78.9 0 68.7-55.9 124.5-124.5 124.5-15.2 0-30.2-2.8-44.3-8.2-16.9 14.3-38.2 22.2-60.8 22.2-15.4 0-30.6-3.8-44.1-11-27.2 17.3-58.2 26.4-90.7 26.4zM455.9 531.4c7.3 0 14.2 3.3 18.8 9.1 23.2 29.3 57.8 46.1 94.9 46.1 27.5 0 53.5-9.1 75.2-26.3 8.9-7 21.4-6.9 30.2 0.3 8.4 6.9 18.6 10.6 29.4 10.6 14.3 0 27.7-6.5 36.6-18 7.3-9.4 20.5-12 30.8-6.1 11.5 6.6 24.6 10 37.8 10 42.2 0 76.5-34.3 76.5-76.5 0-35.9-25.5-67.4-60.6-74.9-11.4-2.4-19.4-12.6-19-24.3 0-1.1 0.1-2.3 0.2-3.4s0.1-2.1 0.1-2.8c0-101.8-82.8-184.7-184.7-184.7-25.4 0-50.1 5.1-73.5 15.3-7.8 3.4-16.8 2.4-23.7-2.6-31.7-23.1-69-35.4-108-35.4-98.5 0-178.9 77.1-183.2 175.6-0.5 12.3-10.3 22.2-22.6 22.9-51.2 3-91.2 45.4-91.2 96.6 0 53.4 43.5 96.9 96.9 96.9 31.4 0 61-15.4 79.2-41.1 7.1-10 20.6-13.1 31.3-7.1 27.3 15.3 58.3 23.4 89.6 23.4 11.2 0 22.8-1.1 34.5-3.4 1.5-0.1 3-0.2 4.5-0.2z"
        fill="#333333"/>
    <path
        d="M729.9 320.1c-5.5 0-11-2.7-14.2-7.7-25.3-38.6-67.9-61.7-114-61.7-9.4 0-17-7.6-17-17s7.6-17 17-17c57.6 0 110.8 28.8 142.5 77 5.1 7.9 3 18.4-4.9 23.5-3 2-6.2 2.9-9.4 2.9zM753.3 382.7c-8.3 0-15.6-6.2-16.8-14.7-0.4-3.1-3.8-18.1-4.7-21.1-2.8-9 2.3-18.5 11.2-21.2 9-2.8 18.5 2.3 21.2 11.3 1.5 4.7 5.2 21.5 5.9 26.4 1.3 9.3-5.2 17.9-14.5 19.2-0.7 0-1.5 0.1-2.3 0.1z"
        fill="#333333"/>
</svg>